<mxfile host="app.diagrams.net" modified="2023-10-11T01:31:45.374Z" agent="Mozilla/5.0 (Windows NT 10.0; Win64; x64) AppleWebKit/537.36 (KHTML, like Gecko) Chrome/117.0.0.0 Safari/537.36" version="22.0.4" etag="H03fB2ySk3w7MKx9rhkj" type="github">
  <diagram name="第 1 页" id="KCWY8FXsSWW-GJzO7p0t">
    <mxGraphModel>
      <root>
        <mxCell id="0" />
        <mxCell id="1" parent="0" />
      </root>
    </mxGraphModel>
  </diagram>
</mxfile>
